{"title":"The Big Bang Theory - S05E06 - 720p WEB-DL H.264 {$H@uN}","uid":6761831,"size":209991793,"categoryP":"video","categoryS":"hd___tv_shows","magnet":"?xt=urn:btih:aed4b4ebad8be4a08e0a8023de94ca1ea1f52d96&amp;dn=The+Big+Bang+Theory+-+S05E06+-+720p+WEB-DL+H.264+%7B%24H%40uN%7D&amp;tr=udp%3A%2F%2Ftracker.openbittorrent.com%3A80&amp;tr=udp%3A%2F%2Fopen.demonii.com%3A1337&amp;tr=udp%3A%2F%2Ftracker.coppersurfer.tk%3A6969&amp;tr=udp%3A%2F%2Fexodus.desync.com%3A6969","seeders":1,"leechers":1,"uploader":"ShaunGP","files":-1,"time":1319233327,"description":"&quot;WEB-DL means straight from iTunes where they release &quot;Bluray&quot; quality episodes.\n Such episodes are without any Logo and Caps.&quot;\n\nThe Big Bang Theory - S05E06 - The Rhinitis Revelation - 720p WEB-DL H.264 {$H@uN}\n\nGeneral:\n\nComplete name                  : The Big Bang Theory - S05E06 - The Rhinitis Revelation - 720p WEB-DL H.264 {$H@uN}.mkv\nOriginal air date              : October 20 2011\nGenre                          : Sitcom\nLanguage                       : English\nEncoder                        : $H@uN\nFile format                    : Matroska\nFile size                      : 200 MiB\nDuration                       : 21mn 31s\nOverall bit rate               : 1 301 Kbps\n\n\nVideo:\n\nFormat                         : AVC\nDuration                       : 21mn 31s\nBit rate                       : 1 200 Kbps\nWidth                          : 1 280 pixels\nHeight                         : 720 pixels\nDisplay aspect ratio           : 16:9\nFrame rate mode                : Variable\nFrame rate                     : 23.976 fps\nColor space                    : YUV\nChroma subsampling             : 4:2:0\nBit depth                      : 8 bits\nScan type                      : Progressive\nBits/(Pixel*Frame)             : 0.054\nStream size                    : 181 MiB (91%)\nWriting library                : x264 core 112\nLaguage                        : English\nSubtitles                      : Seperate .srt file included\n\n\nAudio:\n\nFormat                         : AC-3\nMode extension                 : CM (complete main)\nCodec ID                       : A_AC3\nDuration                       : 21mn 31s\nBit rate mode                  : Constant\nBit rate                       : 96 Kbps\nChannel(s)                     : 2 channels\nChannel positions              : Front: L R\nSampling rate                  : 48.0 KHz\nBit depth                      : 16 bits\nCompression mode               : Lossy\nStream size                    : 14.8 MiB (7%)\nLanguage                       : English\n\nScreen Shots:\n &lt;a href=&quot;\nhttp://i1140.photobucket.com/albums/n566/ShaunGP/ScreenShots1/TheBigBangTheory-S05E06-TheRhinitisRevelation-720pWEB-DLH264HuNmkv_snapshot_0004_20111022_010847.jpg&quot; rel=&quot;nofollow&quot; target=&quot;_NEW&quot;&gt;\nhttp://i1140.photobucket.com/albums/n566/ShaunGP/ScreenShots1/TheBigBangTheory-S05E06-TheRhinitisRevelation-720pWEB-DLH264HuNmkv_snapshot_0004_20111022_010847.jpg&lt;/a&gt;\n &lt;a href=&quot;\nhttp://i1140.photobucket.com/albums/n566/ShaunGP/ScreenShots1/TheBigBangTheory-S05E06-TheRhinitisRevelation-720pWEB-DLH264HuNmkv_snapshot_0925_20111022_010909.jpg&quot; rel=&quot;nofollow&quot; target=&quot;_NEW&quot;&gt;\nhttp://i1140.photobucket.com/albums/n566/ShaunGP/ScreenShots1/TheBigBangTheory-S05E06-TheRhinitisRevelation-720pWEB-DLH264HuNmkv_snapshot_0925_20111022_010909.jpg&lt;/a&gt;\n &lt;a href=&quot;\nhttp://i1140.photobucket.com/albums/n566/ShaunGP/ScreenShots1/TheBigBangTheory-S05E06-TheRhinitisRevelation-720pWEB-DLH264HuNmkv_snapshot_1615_20111022_004941.jpg&quot; rel=&quot;nofollow&quot; target=&quot;_NEW&quot;&gt;\nhttp://i1140.photobucket.com/albums/n566/ShaunGP/ScreenShots1/TheBigBangTheory-S05E06-TheRhinitisRevelation-720pWEB-DLH264HuNmkv_snapshot_1615_20111022_004941.jpg&lt;/a&gt;\n\n\nEncoder's Notes:\n\nDo Provide Feedback.\nKeep in Mind, you are charged nothing for Downloading a TORRENT,\nso its your duty to SEED n keep the torrent alive for as long as possible.\nEnjoy..!!! Keep Seeding till 1:1 ratio...","torrent":{"xt":"urn:btih:aed4b4ebad8be4a08e0a8023de94ca1ea1f52d96","amp;dn":"The+Big+Bang+Theory+-+S05E06+-+720p+WEB-DL+H.264+%7B%24H%40uN%7D","amp;tr":["udp%3A%2F%2Ftracker.openbittorrent.com%3A80","udp%3A%2F%2Fopen.demonii.com%3A1337","udp%3A%2F%2Ftracker.coppersurfer.tk%3A6969","udp%3A%2F%2Fexodus.desync.com%3A6969"],"infoHash":"aed4b4ebad8be4a08e0a8023de94ca1ea1f52d96","infoHashBuffer":{"type":"Buffer","data":[174,212,180,235,173,139,228,160,142,10,128,35,222,148,202,30,161,245,45,150]},"announce":[],"urlList":[]}}